<?xml version="1.0" standalone="no"?>
<!DOCTYPE svg PUBLIC "-//W3C//DTD SVG 20010904//EN"
 "http://www.w3.org/TR/2001/REC-SVG-20010904/DTD/svg10.dtd">
<svg version="1.0" xmlns="http://www.w3.org/2000/svg"
 width="350.000000pt" height="131.000000pt" viewBox="0 0 202.000000 131.000000"
 preserveAspectRatio="xMidYMid meet">
<metadata>
Created by potrace 1.10, written by Peter Selinger 2001-2011
</metadata>
<g transform="translate(0.000000,56.000000) scale(0.100000,-0.100000)"
fill="#FFBC5E" stroke="none">
<path d="M64 511 c-53 -32 -65 -108 -25 -155 9 -10 53 -36 98 -57 85 -41 100
-59 89 -105 -14 -56 -126 -70 -189 -23 -16 11 -30 19 -32 17 -2 -2 1 -22 7
-44 11 -39 13 -41 51 -42 21 -1 43 -4 48 -8 5 -3 34 0 65 6 76 16 124 63 124
123 -1 57 -21 80 -112 122 -87 40 -116 71 -98 104 14 27 41 41 80 41 35 0 86
-23 93 -42 2 -7 7 -10 11 -6 4 3 2 24 -5 46 l-11 39 -82 2 c-64 1 -87 -3 -112
-18z"/>
<path d="M350 521 c0 -5 9 -11 20 -14 19 -5 20 -14 20 -200 0 -185 -1 -196
-23 -228 -12 -19 -37 -41 -54 -49 -42 -19 -42 -33 0 -25 57 12 101 39 122 75
18 31 20 56 23 229 3 181 5 194 23 198 43 12 15 23 -56 23 -41 0 -75 -4 -75
-9z"/>
<path d="M613 516 c-63 -28 -80 -117 -30 -164 12 -11 56 -36 99 -55 80 -37 95
-56 84 -103 -15 -59 -134 -70 -196 -18 -34 29 -34 29 -19 -30 10 -41 12 -43
51 -44 22 -1 44 -4 49 -8 5 -3 34 0 65 6 77 16 124 63 124 123 0 56 -23 80
-117 124 -82 38 -111 69 -93 102 14 27 41 41 80 41 35 0 86 -23 93 -42 10 -30
15 1 6 39 l-11 40 -76 1 c-47 1 -90 -4 -109 -12z"/>
<path d="M870 522 c0 -4 10 -12 23 -17 21 -10 22 -16 27 -170 3 -88 9 -168 14
-177 24 -51 171 -76 242 -42 59 28 68 59 72 233 4 141 5 154 23 158 43 12 14
23 -56 23 -71 0 -99 -11 -55 -23 19 -5 20 -14 20 -157 l0 -152 -29 -29 c-39
-38 -97 -40 -138 -5 l-28 24 -3 157 c-3 151 -3 157 17 162 45 11 18 23 -54 23
-41 0 -75 -3 -75 -8z"/>
<path d="M1436 504 c-24 -23 -20 -31 25 -59 22 -15 39 -31 36 -38 -5 -17 -45
-21 -64 -6 -13 11 -15 10 -12 -6 3 -13 14 -21 31 -23 70 -8 95 55 33 85 -47
22 -47 48 -1 40 28 -4 34 -3 29 9 -7 19 -58 18 -77 -2z"/>
<path d="M1574 511 c4 -5 -5 -38 -19 -72 -30 -74 -29 -69 -7 -69 13 0 18 7 18
22 -1 15 7 23 26 29 32 8 38 4 38 -28 0 -16 6 -23 20 -23 11 0 20 1 20 3 0 1
-13 34 -29 72 -22 53 -35 71 -51 73 -14 2 -20 0 -16 -7z m30 -69 c-22 -5 -27
3 -19 29 l7 22 14 -24 c11 -20 10 -25 -2 -27z"/>
<path d="M1687 508 c4 -7 6 -41 5 -75 -3 -51 0 -63 12 -63 12 0 14 11 10 58
-6 64 -8 65 59 -22 15 -20 31 -36 36 -36 4 0 5 27 3 60 -3 39 0 65 8 75 11 13
8 15 -13 15 -19 0 -24 -5 -22 -17 12 -58 14 -83 7 -83 -4 0 -22 23 -41 50 -21
31 -41 50 -53 50 -13 0 -17 -4 -11 -12z"/>
<path d="M1928 451 c4 -61 2 -71 -19 -90 -15 -14 -18 -21 -8 -21 35 1 44 19
49 100 4 67 3 80 -10 80 -13 0 -15 -12 -12 -69z"/>
<path d="M1999 501 c-17 -13 -23 -29 -23 -56 0 -45 31 -75 76 -75 36 0 78 40
78 75 0 61 -82 96 -131 56z m89 -13 c20 -20 15 -76 -7 -88 -43 -22 -81 1 -81
49 0 34 17 51 50 51 14 0 31 -5 38 -12z"/>
<path d="M2150 499 c-9 -16 -8 -25 6 -40 9 -10 23 -19 29 -19 7 0 18 -7 26
-16 18 -21 -6 -36 -45 -28 -21 5 -27 3 -24 -7 7 -21 57 -23 79 -3 29 26 23 50
-16 68 -45 22 -48 50 -5 44 20 -3 30 0 30 9 0 23 -67 16 -80 -8z"/>
<path d="M2255 445 l0 -76 45 3 c34 2 46 7 48 21 3 16 1 17 -16 6 -26 -16 -52
-5 -52 22 0 16 5 20 20 16 13 -3 20 0 20 9 0 8 -9 14 -20 14 -14 0 -20 7 -20
21 0 18 5 21 30 17 20 -3 30 0 30 9 0 9 -14 13 -42 13 l-43 0 0 -75z"/>
<path d="M2452 508 c-21 -21 -13 -46 23 -67 19 -11 35 -25 35 -31 0 -18 -30
-23 -57 -11 -22 10 -25 10 -19 -4 3 -9 6 -19 6 -21 0 -13 63 -1 80 16 26 26
14 52 -30 70 -38 16 -33 35 8 34 22 -1 29 2 25 12 -6 17 -55 18 -71 2z"/>
<path d="M2547 513 c-14 -13 -6 -20 18 -15 24 4 25 3 25 -50 0 -30 -5 -59 -12
-66 -9 -9 -7 -12 12 -12 24 0 25 2 22 66 l-4 67 26 -7 c20 -5 24 -3 20 9 -4
10 -20 15 -53 15 -26 0 -51 -3 -54 -7z"/>
<path d="M2687 490 c-4 -16 -16 -49 -27 -72 -24 -51 -24 -48 1 -48 11 0 18 4
15 9 -11 17 5 39 30 44 26 5 45 -17 37 -40 -3 -8 5 -13 21 -13 24 0 25 1 10
28 -8 15 -23 48 -34 75 -22 54 -45 61 -53 17z m43 -42 c0 -4 -9 -8 -21 -8 -15
0 -19 4 -15 16 3 9 6 21 6 27 1 13 30 -22 30 -35z"/>
<path d="M2770 506 c0 -9 8 -12 26 -8 l27 5 -5 -67 c-5 -57 -3 -66 11 -66 13
0 15 10 13 66 -4 64 -3 67 17 61 14 -3 21 0 21 9 0 10 -14 14 -55 14 -40 0
-55 -4 -55 -14z"/>
<path d="M2905 445 l0 -75 41 0 c29 0 44 5 48 16 9 24 7 29 -6 16 -7 -7 -22
-12 -35 -12 -18 0 -23 6 -23 26 0 21 4 25 20 21 13 -3 20 0 20 9 0 8 -9 14
-20 14 -14 0 -20 7 -20 21 0 19 4 21 31 15 22 -4 29 -2 27 7 -3 6 -22 13 -44
15 l-39 3 0 -76z"/>
<path d="M1428 213 c1 -27 5 -58 7 -69 6 -29 50 -40 80 -20 19 13 24 26 27 76
2 48 0 60 -12 60 -12 0 -14 -11 -12 -53 3 -40 0 -57 -13 -67 -30 -25 -50 0
-50 64 0 43 -3 56 -15 56 -12 0 -14 -11 -12 -47z"/>
<path d="M1575 187 c0 -59 3 -73 16 -73 12 0 15 10 11 56 -3 33 -1 51 5 45 5
-5 26 -31 47 -57 20 -27 40 -48 44 -48 4 0 7 34 7 75 0 61 -3 75 -15 75 -12 0
-15 -8 -12 -34 8 -68 -1 -72 -38 -17 -50 73 -65 69 -65 -22z"/>
<path d="M1735 190 c0 -56 3 -70 15 -70 12 0 15 15 15 70 1 56 -2 70 -15 70
-12 0 -15 -14 -15 -70z"/>
<path d="M1815 213 c12 -27 25 -58 29 -70 4 -13 11 -23 15 -23 4 0 22 32 39
70 29 66 30 70 11 70 -11 0 -18 -4 -15 -9 3 -5 -3 -29 -13 -53 l-19 -43 -12
30 c-7 17 -13 40 -13 52 -2 16 -8 23 -24 23 l-21 0 23 -47z"/>
<path d="M1955 190 l0 -70 41 0 c27 0 44 5 47 15 5 11 1 12 -19 5 -38 -15 -44
-12 -44 15 0 18 5 25 20 25 11 0 20 5 20 10 0 6 -9 10 -20 10 -14 0 -20 7 -20
21 0 18 5 21 29 17 21 -3 28 -1 24 9 -3 7 -21 13 -42 13 l-36 0 0 -70z"/>
<path d="M2065 190 c0 -57 3 -70 16 -70 12 0 14 7 11 30 -2 18 0 30 7 30 6 0
17 -13 26 -30 9 -17 24 -30 34 -30 10 0 32 -3 48 -6 20 -4 36 0 52 13 30 25
22 56 -19 73 -31 13 -40 35 -17 43 6 2 20 0 30 -5 12 -6 17 -5 17 7 0 18 -60
21 -78 3 -20 -20 -14 -38 23 -59 36 -22 45 -46 21 -55 -8 -3 -24 -1 -35 6 -14
7 -21 7 -21 0 0 -20 -20 -10 -34 18 -13 26 -13 31 1 44 25 26 1 58 -45 58
l-37 0 0 -70z m53 51 c19 -11 11 -45 -11 -49 -13 -3 -17 3 -17 27 0 32 6 37
28 22z"/>
<path d="M2300 208 c4 -29 5 -60 3 -69 -3 -10 3 -18 14 -21 16 -4 18 2 18 69
0 67 -2 73 -21 73 -19 0 -20 -4 -14 -52z"/>
<path d="M2357 247 c-4 -10 1 -13 20 -9 25 5 25 4 21 -57 -2 -49 0 -61 12 -61
12 0 14 12 12 61 l-4 62 26 -5 c17 -4 25 -1 23 6 -6 17 -103 20 -110 3z"/>
<path d="M2506 219 c17 -28 24 -51 22 -70 -4 -23 -1 -29 13 -29 15 0 17 6 13
28 -4 20 2 38 25 70 l31 42 -25 0 c-16 0 -23 -5 -19 -13 2 -7 -2 -21 -10 -32
-15 -19 -16 -19 -28 13 -8 19 -19 32 -30 32 -16 0 -15 -5 8 -41z"/>
</g>
</svg>
