<?xml version="1.0" standalone="no"?>
<!DOCTYPE svg PUBLIC "-//W3C//DTD SVG 20010904//EN"
 "http://www.w3.org/TR/2001/REC-SVG-20010904/DTD/svg10.dtd">
<svg version="1.0" xmlns="http://www.w3.org/2000/svg"
 width="216.000000pt" height="131.000000pt" viewBox="0 0 216.000000 131.000000"
 preserveAspectRatio="xMidYMid meet">
<metadata>
Created by potrace 1.10, written by Peter Selinger 2001-2011
</metadata>
<g transform="translate(0.000000,131.000000) scale(0.100000,-0.100000)"
fill="#FFBC5E" stroke="none">
<path d="M1113 1278 c-40 -13 -41 -21 -8 -42 24 -16 25 -16 25 8 0 35 15 40
30 10 l14 -25 13 23 c7 13 12 26 13 31 0 10 -48 7 -87 -5z"/>
<path d="M1210 1278 c0 -7 3 -23 6 -36 l7 -23 18 27 c14 21 15 30 6 36 -18 12
-37 9 -37 -4z"/>
<path d="M1270 1240 l0 -31 24 18 c17 13 21 21 14 31 -19 23 -38 14 -38 -18z"/>
<path d="M1048 1239 c-25 -14 -22 -23 12 -36 32 -12 33 -11 24 25 -7 25 -11
26 -36 11z"/>
<path d="M1319 1214 c-12 -34 -8 -37 26 -24 27 10 27 11 10 30 -23 25 -24 25
-36 -6z"/>
<path d="M1006 1194 c-11 -28 -7 -34 24 -34 30 0 30 0 14 25 -19 29 -29 31
-38 9z"/>
<path d="M1145 1191 c-11 -5 -32 -21 -47 -36 -16 -15 -32 -24 -39 -19 -7 4
-10 2 -7 -7 3 -8 14 -15 25 -17 l21 -3 -20 -62 c-10 -34 -17 -73 -16 -87 3
-21 6 -19 16 16 14 48 25 59 70 69 43 9 40 0 -8 -25 l-40 -20 0 -69 c0 -69 0
-69 -37 -91 -35 -20 -48 -22 -188 -19 -154 3 -173 0 -208 -38 -14 -16 -24 -18
-64 -12 -27 4 -66 13 -89 20 -35 10 -63 9 -190 -10 -218 -33 -216 -30 -64 -62
194 -41 229 -45 286 -25 76 26 125 22 159 -14 34 -35 39 -36 88 -11 31 16 51
18 113 14 76 -6 102 7 47 23 -26 7 -25 8 17 14 32 4 48 2 57 -9 17 -19 66 -22
138 -7 40 8 77 9 110 3 31 -5 56 -5 66 1 9 6 33 7 60 2 105 -20 186 21 184 92
l-2 37 28 -20 c15 -10 32 -19 38 -19 6 0 11 -4 11 -10 0 -5 -9 -10 -19 -10
-19 0 -35 -23 -24 -34 4 -3 23 -6 44 -6 54 0 71 -8 56 -27 -23 -28 -66 -65
-94 -81 -40 -24 -663 -32 -663 -9 0 8 7 20 15 27 9 7 14 15 11 17 -5 5 -157
-56 -171 -68 -5 -5 -48 -9 -96 -9 -79 0 -95 3 -163 35 -42 19 -79 35 -83 35
-4 0 -51 -25 -105 -56 l-98 -55 0 -172 0 -172 175 -88 175 -87 535 0 535 0
175 87 175 88 0 172 0 172 -85 47 c-47 26 -87 55 -90 64 -3 9 -17 28 -31 41
l-26 24 7 -25 c10 -35 42 -67 95 -98 25 -14 60 -36 78 -49 l32 -24 0 -148 c0
-172 7 -158 -117 -220 -91 -46 -93 -47 -93 -27 0 8 -5 18 -11 22 -8 4 -9 -1
-4 -16 6 -20 5 -21 -15 -10 -20 11 -21 10 -15 -9 7 -23 -4 -28 -23 -9 -9 9
-12 7 -12 -10 0 -27 -8 -28 -27 -4 -13 15 -13 15 -3 -5 8 -18 7 -24 -9 -33
-13 -6 -198 -10 -541 -10 -462 0 -523 2 -545 16 -14 9 -25 25 -25 36 0 16 -3
17 -21 7 -20 -10 -21 -9 -16 10 5 21 -7 29 -18 11 -3 -6 -17 -8 -30 -6 -33 6
-146 61 -178 86 l-27 21 0 149 0 149 33 24 c17 14 60 40 94 58 l61 34 69 -35
c64 -33 73 -35 158 -33 50 2 266 6 480 11 248 5 402 12 424 20 44 15 96 56
118 92 l17 30 198 0 198 0 0 25 0 25 -189 0 -190 0 -37 34 c-50 45 -175 111
-254 132 -36 10 -91 33 -122 51 -62 36 -89 43 -68 18 10 -12 9 -15 -6 -15 -11
-1 -46 -25 -79 -55 -33 -30 -62 -55 -65 -55 -3 0 -5 25 -6 55 0 35 4 55 11 55
6 0 26 16 45 35 36 38 30 42 -33 24 -22 -6 -41 -8 -44 -6 -2 3 3 19 11 35 32
61 123 62 153 2 11 -21 10 -26 -4 -31 -13 -4 -11 -7 11 -13 35 -9 39 -5 30 28
-15 61 -91 92 -161 65 -26 -9 -27 -9 -12 6 9 9 34 19 56 22 53 7 97 -17 123
-67 11 -22 28 -40 37 -40 15 0 15 1 0 18 -10 10 -17 23 -17 29 0 19 -40 61
-72 77 -33 17 -81 20 -113 7z m159 -218 c4 -4 -3 -15 -16 -25 -22 -16 -21 -17
22 -2 36 13 54 14 93 5 74 -17 176 -60 236 -100 111 -74 107 -71 88 -71 -10 0
-52 24 -95 53 -105 73 -172 100 -247 99 -33 0 -71 -5 -85 -11 -21 -9 -16 -10
28 -5 37 4 52 2 52 -7 0 -8 11 -10 33 -6 31 6 31 5 -8 -13 -21 -10 -44 -16
-49 -13 -5 3 -6 1 -2 -6 6 -8 1 -10 -17 -6 -13 4 -53 7 -88 8 -61 2 -79 9 -79
32 0 6 4 3 10 -5 10 -17 20 -10 24 17 2 10 8 18 14 18 7 0 11 4 10 8 -2 5 11
15 27 22 37 16 40 17 49 8z m226 -115 c48 -33 48 -45 0 -53 -49 -8 -47 -13 11
-23 l44 -7 -35 -22 c-49 -29 -95 -34 -170 -18 -62 13 -92 13 -56 -1 9 -3 16
-10 16 -16 0 -5 -5 -6 -11 -2 -26 16 -134 21 -166 7 -18 -7 -53 -13 -78 -13
-42 0 -45 2 -45 28 0 15 -4 34 -10 42 -12 19 5 30 48 30 17 0 32 4 32 9 0 23
71 36 170 33 51 -2 53 -4 36 -17 -17 -13 -17 -15 -4 -15 9 0 20 5 24 11 11 19
87 49 125 49 21 0 50 -9 69 -22z m-757 -85 c16 -30 16 -31 -10 -48 -26 -17
-27 -17 -50 9 -13 15 -23 31 -23 35 0 6 62 41 66 37 1 0 9 -15 17 -33z m215
15 c18 -18 16 -62 -4 -54 -8 3 -45 11 -82 16 -60 10 -81 21 -82 43 0 12 155 8
168 -5z m-477 -25 l34 -18 -72 -3 c-40 -2 -106 -2 -145 0 l-73 3 95 16 c126
22 122 22 161 2z m1598 -9 c2 -2 -107 -4 -243 -4 -151 0 -245 4 -241 9 5 9
474 3 484 -5z"/>
<path d="M1364 1178 c-26 -33 -25 -38 5 -38 34 0 38 7 18 34 -11 15 -15 15
-23 4z"/>
<path d="M975 1129 c-9 -28 -2 -32 36 -24 l32 7 -24 19 c-31 24 -36 24 -44 -2z"/>
<path d="M1372 1110 l-22 -18 31 -7 c36 -8 40 -6 32 23 -7 27 -11 27 -41 2z"/>
<path d="M1366 1051 c-17 -6 -16 -9 9 -25 30 -20 30 -20 39 12 6 17 3 22 -11
21 -10 0 -26 -4 -37 -8z"/>
<path d="M388 573 l-78 -46 1 -146 0 -146 84 -41 83 -41 73 34 c39 18 73 33
75 33 2 0 4 -31 4 -70 l0 -70 525 0 525 0 0 70 c0 39 3 70 8 69 4 0 38 -15 77
-33 l69 -34 78 42 78 41 1 130 c0 72 2 138 4 147 2 13 -19 30 -75 63 -44 25
-83 45 -87 45 -4 0 -39 -16 -78 -36 l-70 -36 -535 3 -535 4 -63 32 c-35 18
-69 33 -75 32 -7 0 -47 -21 -89 -46z m152 -37 c55 -32 55 -33 58 -85 l3 -53
-60 47 c-60 45 -61 46 -84 28 l-24 -17 66 -39 c93 -56 101 -64 101 -108 0 -35
-4 -40 -42 -60 -24 -12 -50 -28 -59 -36 -14 -12 -24 -9 -78 23 l-61 36 0 49 0
50 55 -41 c60 -45 64 -46 90 -26 17 12 12 17 -63 66 -79 50 -82 53 -82 91 0
36 3 40 58 73 31 19 59 35 62 35 3 0 30 -15 60 -33z m1383 -7 c24 -10 27 -16
27 -56 0 -24 -3 -43 -7 -41 -5 2 -31 15 -59 30 -47 25 -53 26 -73 12 -12 -9
-21 -26 -21 -40 0 -23 4 -25 38 -24 54 3 54 3 37 -30 -12 -23 -22 -30 -45 -30
-38 0 -41 -31 -6 -49 20 -11 30 -9 80 17 l56 30 0 -41 c-1 -41 -2 -43 -58 -70
l-58 -27 -57 31 -57 31 0 116 0 117 58 32 c53 29 59 30 87 17 16 -7 42 -19 58
-25z m-1274 2 c11 -7 9 -10 -8 -16 -11 -3 -21 -14 -21 -22 0 -22 -6 -14 -14
20 -5 22 -3 27 11 27 10 0 24 -4 32 -9z m190 0 c11 -7 10 -11 -5 -20 -16 -9
-13 -10 21 -11 40 0 41 -1 73 -67 l32 -68 -3 68 -3 67 44 0 c26 0 41 4 37 10
-10 17 -70 11 -91 -9 -20 -18 -21 -18 -32 0 -7 11 -20 19 -30 19 -13 0 -14 2
-4 9 16 10 502 11 502 1 0 -14 -30 -20 -75 -14 -59 9 -95 -1 -95 -26 0 -10 5
-22 10 -25 6 -3 10 -31 10 -61 0 -30 -4 -54 -10 -54 -5 0 -10 6 -10 13 0 6 -5
4 -11 -5 -12 -22 -29 -23 -29 -3 0 17 -16 20 -25 5 -10 -16 67 -59 88 -48 23
12 25 139 2 158 -27 22 -16 30 40 30 56 0 67 -8 40 -30 -11 -9 -15 -34 -15
-99 l0 -86 -40 -22 -40 -21 -45 25 c-40 22 -45 29 -46 61 0 35 -1 35 -10 12
-14 -35 -3 -67 29 -84 l27 -15 -28 -1 c-33 0 -35 -4 -52 -97 -7 -43 -8 -43
-50 -43 -45 0 -55 10 -55 56 0 14 5 23 13 22 7 -2 12 9 12 30 0 21 5 32 14 32
26 0 2 13 -36 19 -34 6 -39 11 -58 59 -11 28 -22 52 -25 52 -3 0 -4 -26 -2
-58 l4 -58 -41 0 c-43 0 -49 4 -30 23 6 6 12 50 12 97 1 69 -2 89 -16 103 -9
10 -17 12 -17 6 0 -7 5 -15 10 -18 8 -5 7 -11 -1 -21 -8 -10 -8 -14 0 -14 16
0 13 -27 -4 -34 -8 -3 -15 -10 -15 -15 0 -6 7 -8 15 -5 8 4 15 1 15 -5 0 -6
-4 -11 -9 -11 -5 0 -7 -10 -5 -22 3 -18 1 -17 -8 5 -7 15 -15 27 -20 27 -4 0
-8 13 -8 28 0 39 -29 122 -43 122 -7 0 -5 5 3 10 19 12 70 13 89 1z m721 -1
c0 -6 -7 -13 -15 -16 -8 -4 -12 -10 -9 -15 6 -10 -36 -12 -60 -3 -9 3 -13 10
-10 15 3 5 0 9 -6 9 -6 0 -8 5 -5 10 8 13 105 13 105 0z m151 -4 c-6 -8 -20
-16 -30 -19 -17 -4 -20 4 -12 31 1 1 13 2 27 2 21 0 24 -3 15 -14z m-62 -32
c30 -20 40 -33 43 -60 2 -19 3 -34 1 -34 -2 0 -22 13 -45 30 -33 24 -44 28
-55 18 -12 -10 -11 -14 9 -29 13 -10 38 -26 56 -36 27 -15 32 -23 32 -53 0
-30 -5 -38 -40 -58 l-40 -23 -45 27 c-40 23 -45 30 -45 60 l0 35 45 -31 c38
-26 49 -29 61 -19 13 10 6 18 -46 50 -50 32 -60 43 -60 67 0 20 7 33 25 42 19
10 22 16 13 22 -9 6 -5 7 9 3 12 -3 24 -1 28 5 9 14 10 13 54 -16z m-189 -6
l40 -23 0 -86 0 -85 -41 -24 -42 -23 -43 24 -44 24 0 85 0 86 43 21 c23 12 43
22 45 22 2 1 21 -9 42 -21z m-696 -35 c12 -85 31 -162 44 -175 20 -20 14 -25
-25 -23 -26 2 -39 8 -41 19 -5 22 -59 22 -64 -1 -2 -12 -14 -17 -41 -18 -41
-1 -43 1 -23 24 7 9 20 54 29 100 16 79 16 86 0 103 -15 17 -13 18 49 18 l65
0 7 -47z m1211 -65 c0 -46 -1 -73 -3 -61 -4 24 -40 42 -51 24 -4 -5 -17 -8
-29 -4 -23 6 -29 18 -12 28 6 3 10 21 10 38 1 27 3 30 13 16 17 -22 61 -9 65
19 6 38 7 25 7 -60z m-1625 37 c0 -14 7 -28 16 -32 15 -5 15 -7 0 -15 -9 -5
-16 -22 -16 -40 0 -17 -3 -28 -7 -24 -11 10 -12 136 -2 136 5 0 9 -11 9 -25z
m371 -208 c-6 -6 -11 -35 -11 -64 0 -50 -1 -53 -25 -53 -30 0 -32 6 -38 83 -2
40 0 57 9 57 6 0 25 7 40 15 27 14 29 14 32 -6 2 -12 -1 -26 -7 -32z m804 43
c4 -6 15 -8 25 -5 10 3 21 1 25 -5 7 -11 58 -14 69 -3 13 14 66 11 66 -2 0 -8
8 -16 18 -19 9 -2 1 -2 -19 0 l-35 6 -10 -64 c-8 -58 -11 -63 -35 -66 -27 -3
-27 -3 -25 60 1 59 0 63 -26 72 -18 6 -36 5 -57 -4 -30 -12 -31 -15 -31 -71
l0 -59 -49 0 c-47 0 -50 1 -56 32 -5 21 -4 33 4 36 21 7 33 42 20 58 -9 12 -9
13 2 9 8 -3 30 4 49 14 40 23 56 25 65 11z m-185 -10 c12 -8 11 -10 -8 -10
-29 0 -49 -40 -33 -66 9 -16 10 -14 11 16 0 35 0 35 42 34 32 -1 44 -6 46 -19
3 -13 -1 -15 -16 -11 -16 5 -20 3 -17 -11 15 -74 14 -78 -10 -78 -22 0 -23 3
-18 48 4 32 2 47 -6 47 -6 0 -11 -15 -11 -34 0 -57 -8 -66 -55 -66 l-43 0 -10
48 c-11 52 -12 83 -3 78 3 -2 22 4 41 14 40 21 69 24 90 10z m-436 -40 c-4
-19 -2 -30 5 -30 6 0 11 10 11 23 0 19 5 22 42 21 32 -1 44 -6 46 -19 3 -13
-1 -15 -17 -10 -19 6 -21 2 -21 -29 0 -19 5 -38 10 -41 28 -17 3 -25 -49 -16
-2 1 1 7 6 14 13 18 16 77 4 77 -6 0 -11 -17 -11 -37 0 -55 -10 -65 -60 -61
l-44 3 0 53 c-1 41 -6 57 -20 68 -18 13 -14 14 42 14 l62 0 -6 -30z m280 17
c-5 -14 7 -76 21 -110 6 -14 4 -16 -11 -10 -11 3 -22 11 -25 16 -4 6 -16 3
-30 -7 -30 -20 -45 -21 -28 0 7 8 13 38 13 65 1 41 4 49 17 46 9 -3 23 -1 30
4 18 12 19 11 13 -4z m-374 -39 c0 -17 -1 -18 -25 -2 -16 10 -25 12 -25 5 0
-6 11 -17 25 -23 32 -14 32 -42 0 -56 -21 -10 -28 -9 -45 8 -29 29 -25 46 5
26 33 -22 32 -7 -2 19 l-26 22 21 21 c19 19 25 20 47 10 14 -6 25 -20 25 -30z
m761 32 c10 -6 19 -17 19 -25 0 -18 -12 -19 -27 -4 -12 12 -33 4 -33 -12 0 -5
7 -9 15 -9 8 0 15 -4 15 -10 0 -5 -7 -10 -16 -10 -8 0 -12 -5 -9 -10 4 -7 12
-7 25 0 25 14 30 13 30 -5 0 -20 -40 -35 -62 -23 -13 6 -18 21 -18 53 0 31 5
47 18 54 21 13 20 13 43 1z"/>
<path d="M1022 478 c-7 -7 -12 -45 -12 -98 0 -76 3 -89 21 -106 22 -19 22 -19
10 3 -14 27 -15 168 -1 194 12 21 1 26 -18 7z"/>
<path d="M1403 443 c-20 -7 -17 -119 2 -127 33 -12 45 4 45 64 0 44 -4 59 -16
64 -9 3 -16 6 -17 5 -1 0 -8 -3 -14 -6z"/>
<path d="M700 408 c0 -20 -3 -43 -6 -52 -4 -12 0 -16 15 -16 20 0 21 4 15 38
-10 57 -23 74 -24 30z"/>
</g>
</svg>
