<?xml version="1.0" standalone="no"?>
<!DOCTYPE svg PUBLIC "-//W3C//DTD SVG 20010904//EN"
 "http://www.w3.org/TR/2001/REC-SVG-20010904/DTD/svg10.dtd">
<svg version="1.0" xmlns="http://www.w3.org/2000/svg"
 width="300.000000pt" height="321.000000pt" viewBox="0 0 300.000000 321.000000"
 preserveAspectRatio="xMidYMid meet">
<metadata>
Created by potrace 1.10, written by Peter Selinger 2001-2011
</metadata>
<g transform="translate(0.000000,321.000000) scale(0.100000,-0.100000)"
fill="#FFBC5E" stroke="none">
<path d="M1253 3183 c37 -2 96 -2 130 0 34 2 4 3 -68 3 -71 0 -99 -1 -62 -3z"/>
<path d="M1085 3100 c-82 -14 -291 -66 -303 -75 -2 -2 56 -74 129 -161 72 -88
143 -174 157 -192 14 -18 27 -31 29 -29 6 6 94 459 91 467 -2 4 -48 -1 -103
-10z m51 -45 c6 -14 -39 -265 -55 -307 -6 -18 -13 -13 -61 42 -90 104 -160
194 -160 207 0 7 30 21 68 32 151 44 199 50 208 26z"/>
<path d="M1250 3118 c0 -7 178 -449 183 -454 5 -5 230 401 229 413 -1 4 -34
13 -74 20 -80 13 -338 29 -338 21z m319 -54 c38 -8 39 -25 7 -79 -13 -22 -41
-72 -61 -111 -21 -39 -46 -81 -56 -95 -16 -20 -20 -22 -29 -9 -23 35 -120 292
-114 302 7 11 187 5 253 -8z"/>
<path d="M1724 2998 c4 -40 13 -148 20 -241 7 -92 15 -169 17 -172 5 -4 346
316 348 326 2 15 -348 159 -387 159 -2 0 -1 -33 2 -72z m90 5 c3 -4 16 -8 29
-10 12 -2 26 -8 31 -13 6 -6 15 -10 22 -10 22 0 133 -53 138 -66 5 -13 -218
-234 -235 -234 -5 0 -11 10 -13 23 -4 20 -26 276 -26 305 0 13 42 17 54 5z"/>
<path d="M580 3009 c-41 -22 -79 -45 -85 -51 -5 -5 31 11 80 38 100 53 102 54
89 54 -5 0 -43 -19 -84 -41z"/>
<path d="M651 2965 c-40 -19 -116 -63 -168 -97 l-96 -62 24 -18 c13 -10 100
-74 193 -143 93 -69 170 -124 171 -123 5 6 -40 478 -45 478 -3 0 -38 -16 -79
-35z m53 -63 c3 -15 10 -83 16 -151 12 -131 7 -155 -26 -127 -11 8 -50 38 -89
66 -38 28 -87 63 -107 78 -21 15 -38 30 -38 34 0 19 215 143 231 132 4 -2 10
-17 13 -32z"/>
<path d="M422 2915 c-28 -20 -52 -38 -52 -40 0 -3 25 11 55 31 48 32 62 44 52
44 -1 0 -26 -16 -55 -35z"/>
<path d="M2190 2947 c0 -3 30 -24 67 -48 172 -112 359 -297 462 -457 18 -28
35 -52 38 -52 7 0 -28 54 -84 130 -97 132 -255 281 -398 377 -74 49 -85 55
-85 50z"/>
<path d="M2115 2710 c-20 -94 -45 -202 -54 -240 -10 -39 -16 -70 -14 -70 4 0
426 211 431 215 12 11 -293 265 -318 265 -4 0 -24 -77 -45 -170z m144 58 c70
-53 151 -128 151 -140 0 -10 -277 -148 -298 -148 -8 0 -11 7 -8 18 2 9 17 73
31 142 28 131 42 170 58 170 6 0 35 -19 66 -42z"/>
<path d="M305 2828 c-81 -67 -163 -149 -219 -218 -66 -81 -69 -87 -55 -96 7
-4 9 -3 5 4 -14 23 132 183 299 326 17 14 28 25 25 26 -3 0 -27 -19 -55 -42z"/>
<path d="M269 2701 c-41 -38 -91 -89 -112 -114 l-37 -45 202 -129 c111 -70
206 -130 211 -132 5 -2 2 10 -6 25 -8 16 -49 124 -92 239 -43 116 -80 213 -84
218 -4 4 -41 -24 -82 -62z m91 -55 c0 -6 19 -58 41 -116 23 -58 43 -116 46
-128 6 -24 6 -24 -48 7 -29 16 -61 37 -71 46 -10 8 -21 15 -24 15 -10 0 -124
81 -124 88 0 4 32 38 72 76 l72 68 18 -22 c10 -12 18 -27 18 -34z"/>
<path d="M1247 2720 c-2 -8 -22 -69 -43 -135 -51 -158 -50 -149 -28 -140 11 4
62 11 114 14 l95 6 -67 135 c-36 74 -68 128 -71 120z m52 -145 c17 -36 31 -70
31 -75 0 -7 -110 -20 -119 -13 -7 5 42 153 49 153 4 0 22 -29 39 -65z"/>
<path d="M1610 2701 c0 -4 -36 -59 -80 -120 -44 -62 -80 -116 -80 -120 0 -5
28 -11 63 -14 34 -3 82 -13 106 -22 24 -8 45 -14 47 -12 2 1 -6 57 -16 122
-11 66 -20 132 -20 148 0 15 -4 27 -10 27 -5 0 -10 -4 -10 -9z m7 -139 c18
-86 17 -116 -4 -107 -10 3 -40 11 -66 17 -26 5 -47 13 -45 17 9 22 94 138 98
134 3 -2 10 -30 17 -61z"/>
<path d="M902 2505 c-2 -80 -2 -145 1 -145 2 0 29 11 58 23 30 13 75 30 101
37 l47 12 -80 88 c-44 48 -87 97 -95 109 -8 11 -18 21 -22 21 -4 0 -8 -65 -10
-145z m130 -28 l20 -27 -39 -16 c-21 -9 -42 -17 -48 -18 -5 -1 -16 -5 -22 -9
-10 -6 -13 8 -13 62 0 102 5 110 47 69 19 -18 44 -45 55 -61z"/>
<path d="M1865 2506 c-56 -45 -111 -88 -125 -97 -23 -15 -23 -15 54 -52 43
-20 90 -46 105 -56 l27 -20 22 152 c12 83 20 152 19 152 -1 1 -47 -35 -102
-79z m59 -38 c-6 -73 -14 -121 -20 -127 -8 -8 -114 52 -114 64 1 7 124 111
137 115 1 0 0 -24 -3 -52z"/>
<path d="M2381 2373 c-67 -118 -121 -215 -119 -217 1 -1 110 16 240 39 l237
40 -35 65 c-42 75 -94 152 -156 231 l-43 57 -124 -215z m156 115 c28 -31 120
-174 128 -199 9 -27 4 -31 -58 -40 -28 -4 -63 -10 -77 -12 -112 -20 -181 -29
-187 -23 -7 7 11 42 100 194 33 56 63 102 67 102 4 0 16 -10 27 -22z"/>
<path d="M594 2453 c7 -21 25 -89 41 -151 l27 -112 36 32 c20 17 63 48 95 69
58 37 58 38 35 52 -164 101 -240 147 -243 147 -2 0 2 -17 9 -37z m110 -65 c93
-58 92 -55 36 -99 -27 -21 -51 -39 -53 -39 -7 0 -25 50 -41 113 -9 38 -11 57
-3 57 5 0 33 -14 61 -32z"/>
<path d="M1237 2370 c-145 -23 -313 -96 -439 -190 l-66 -50 55 -53 55 -53 -57
-60 c-77 -79 -110 -132 -188 -304 -97 -215 -265 -655 -254 -666 1 -2 33 9 70
24 l67 27 34 97 c74 212 117 277 194 297 47 12 402 22 402 11 0 -14 -87 -88
-127 -109 -55 -28 -154 -52 -246 -59 l-80 -7 -138 -550 c-77 -302 -142 -560
-145 -572 -5 -19 20 -11 233 73 280 112 605 224 718 249 99 22 135 55 165 153
22 70 28 264 10 292 -8 13 -10 13 -10 -1 0 -37 -92 -199 -143 -252 -59 -62
-39 -53 -460 -198 -158 -54 -295 -103 -305 -108 -35 -21 12 -10 140 34 73 24
147 49 163 54 17 6 51 15 77 22 28 7 45 16 41 22 -4 7 7 8 33 4 23 -4 33 -3
25 2 -9 6 13 17 70 36 144 47 243 99 244 129 1 6 7 10 14 8 8 -2 11 3 8 12 -7
19 9 31 17 14 3 -7 3 -3 1 9 -3 12 -1 24 5 28 5 3 10 0 10 -7 1 -7 7 2 15 20
22 51 32 37 24 -35 -17 -152 -51 -185 -229 -222 -25 -5 -99 -28 -165 -51 -66
-23 -130 -45 -142 -47 -13 -3 -23 -9 -23 -14 0 -5 -9 -9 -20 -9 -11 0 -29 -5
-40 -10 -11 -6 -29 -14 -40 -20 -11 -5 -26 -10 -33 -10 -13 0 -271 -100 -314
-122 -31 -16 -37 -6 -25 44 49 210 68 283 151 598 16 63 32 126 35 140 28 134
56 228 73 242 8 6 24 13 36 14 164 22 209 33 276 70 58 31 121 95 121 122 0
39 -15 46 -107 46 -176 2 -337 -10 -369 -27 -37 -19 -78 -65 -97 -110 -52
-119 -70 -163 -83 -206 -14 -48 -55 -94 -62 -71 -3 9 36 135 58 185 5 11 12
31 16 45 15 54 145 357 201 465 40 79 60 106 132 185 28 30 51 63 51 72 0 10
-16 35 -35 57 -19 21 -35 43 -35 48 0 16 148 109 225 142 124 52 188 65 330
65 168 0 294 -32 440 -111 95 -52 233 -178 294 -268 64 -94 151 -304 151 -361
0 -13 -27 40 -60 118 -114 273 -333 457 -625 524 -96 23 -316 11 -369 -20 -29
-16 -76 -58 -76 -67 0 -4 28 5 63 21 246 115 633 4 834 -239 171 -206 243
-497 203 -810 -6 -41 -8 -76 -6 -79 3 -2 18 38 34 90 193 604 -221 1211 -847
1242 -53 3 -122 1 -154 -4z"/>
<path d="M2135 2334 c-55 -24 -117 -50 -138 -59 l-38 -15 48 -41 c26 -23 64
-60 85 -83 l36 -41 12 30 c6 16 27 66 47 110 59 132 64 145 56 144 -5 -1 -53
-21 -108 -45z m55 -18 c0 -12 -70 -156 -75 -156 -10 0 -95 82 -95 92 0 4 4 8
10 8 5 0 33 11 62 24 77 34 98 41 98 32z"/>
<path d="M2635 2088 c-66 -62 -148 -137 -181 -168 l-62 -57 232 -32 c127 -17
236 -31 242 -31 8 0 6 28 -8 92 -19 88 -83 286 -96 300 -4 4 -61 -43 -127
-104z m125 5 c15 -33 25 -64 50 -158 25 -92 21 -96 -90 -80 -47 7 -110 16
-140 19 -61 6 -90 14 -90 26 0 4 19 25 43 46 23 20 75 68 115 106 41 37 79 68
86 68 7 0 19 -12 26 -27z"/>
<path d="M672 2090 l68 -65 -30 -35 c-17 -19 -40 -48 -51 -65 l-21 -30 27 30
c14 17 39 46 55 66 l29 36 -37 34 c-76 71 -105 92 -40 29z"/>
<path d="M1185 2153 c-11 -3 -31 -10 -45 -16 l-25 -10 33 -7 c19 -4 50 -3 70
2 53 15 176 3 329 -30 50 -11 141 -54 203 -96 44 -29 137 -118 172 -164 44
-55 116 -211 134 -287 27 -113 29 -332 3 -445 -26 -115 -19 -134 123 -325 101
-137 199 -277 201 -288 2 -12 -18 -14 -43 -5 -33 12 -192 48 -214 48 -12 0
-26 3 -30 7 -11 12 -65 18 -236 28 -141 8 -143 9 -163 50 -22 46 -22 69 -1 61
9 -3 19 -6 22 -7 4 0 -2 -5 -13 -10 -14 -6 -7 -7 24 -3 29 4 41 3 37 -4 -6
-11 6 -12 239 -32 66 -5 135 -12 154 -16 21 -4 32 -3 28 3 -10 16 -260 53
-354 53 -55 0 -142 33 -195 73 -30 24 -42 40 -44 65 -2 17 -14 49 -27 70 -13
20 -26 44 -30 52 -4 10 -6 8 -6 -7 -1 -23 38 -116 120 -290 l44 -93 104 0
c170 0 437 -48 629 -114 67 -22 72 -23 60 -6 -7 11 -104 146 -216 301 l-203
282 15 61 c64 256 41 483 -70 698 -104 201 -297 343 -534 393 -67 14 -251 19
-295 8z"/>
<path d="M2300 2072 c-74 -8 -136 -16 -138 -17 -2 -2 13 -25 32 -52 19 -27 46
-73 59 -101 l24 -52 29 37 c16 21 61 75 102 121 61 69 69 82 50 80 -13 0 -84
-8 -158 -16z m93 -28 c3 -3 -2 -14 -11 -24 -9 -10 -34 -38 -55 -64 -30 -35
-42 -43 -50 -33 -22 22 -59 98 -52 105 12 12 158 26 168 16z"/>
<path d="M1225 2044 c-40 -6 -102 -23 -145 -41 -92 -39 -160 -76 -154 -84 3
-5 1 -9 -5 -9 -16 0 -101 -82 -101 -97 0 -8 -4 -11 -10 -8 -5 3 -10 0 -10 -8
0 -8 -7 -20 -15 -27 -8 -7 -15 -21 -15 -32 0 -12 -4 -17 -12 -12 -7 4 -10 4
-6 0 3 -4 -9 -38 -27 -74 -18 -37 -35 -81 -36 -97 -4 -28 -2 -30 26 -28 17 0
84 4 150 8 113 7 415 -3 388 -12 -8 -3 -11 -14 -7 -28 6 -26 -22 -78 -38 -69
-6 4 -8 -2 -3 -15 5 -17 3 -20 -11 -14 -12 4 -15 2 -12 -8 7 -20 -21 -49 -40
-42 -11 5 -14 2 -10 -8 4 -10 -4 -19 -23 -28 -16 -7 -26 -17 -23 -23 4 -6 -2
-8 -16 -3 -14 4 -20 3 -16 -3 11 -19 -175 -82 -244 -82 -15 0 -33 -6 -39 -14
-6 -7 -22 -60 -36 -117 -14 -57 -30 -121 -35 -141 -6 -21 -15 -57 -21 -80 -6
-24 -15 -57 -20 -74 -5 -17 -9 -40 -9 -53 0 -12 -4 -20 -8 -17 -5 3 -14 -23
-20 -57 -7 -34 -20 -93 -29 -132 -26 -114 -31 -145 -23 -145 4 0 49 165 99
368 51 202 96 383 101 402 l10 36 91 17 c182 34 329 135 392 269 46 97 66 90
-255 86 -156 -2 -291 -7 -300 -12 -15 -7 -13 4 12 64 87 210 261 370 452 415
81 19 226 19 308 -1 36 -8 103 -33 150 -56 109 -52 227 -167 282 -273 62 -118
83 -210 82 -355 -1 -111 -19 -228 -38 -247 -3 -3 -31 11 -63 30 -90 54 -107
61 -96 45 27 -45 396 -538 400 -534 3 2 -7 21 -20 41 -14 21 -23 44 -19 53 4
12 1 14 -12 9 -14 -5 -17 -3 -12 8 3 8 0 15 -7 15 -7 0 -18 14 -25 30 -8 17
-18 28 -23 25 -5 -4 -6 1 -3 9 4 11 0 16 -11 16 -11 0 -15 5 -11 15 3 8 0 14
-7 12 -7 -1 -11 6 -9 16 2 10 -3 16 -10 15 -7 -2 -12 4 -10 14 2 13 -2 16 -13
11 -12 -4 -16 -1 -13 13 2 12 -2 18 -11 16 -8 -2 -11 3 -8 13 4 8 1 15 -6 15
-7 0 -18 14 -24 31 -7 17 -16 28 -20 26 -5 -3 -15 4 -23 16 -12 20 -12 21 3 8
14 -11 18 -11 23 3 3 9 14 16 24 16 36 0 60 103 60 260 -1 124 -11 186 -46
285 -31 88 -38 104 -45 99 -4 -2 -5 5 -2 16 4 14 1 20 -8 18 -9 -2 -13 4 -11
14 2 12 -2 16 -13 12 -11 -5 -14 -2 -9 10 4 11 2 16 -7 14 -8 -2 -13 3 -11 10
2 12 -41 62 -54 62 -4 0 -13 8 -20 18 -7 9 -17 17 -23 17 -6 0 -12 5 -12 10
-2 13 -55 45 -74 45 -8 0 -15 5 -15 10 0 5 -3 9 -7 8 -5 -2 -33 7 -63 18 -30
12 -71 26 -90 33 -36 12 -222 23 -275 15z"/>
<path d="M2310 1795 c0 -1 9 -37 20 -80 11 -43 20 -93 20 -112 0 -18 2 -33 4
-33 3 0 45 30 93 66 48 36 100 73 116 82 15 9 27 20 27 24 0 4 -12 8 -27 8
-16 1 -79 11 -140 23 -62 13 -113 22 -113 22z m149 -57 c28 -6 51 -15 51 -18
0 -12 -121 -92 -128 -85 -4 3 -12 31 -18 61 l-10 54 27 0 c15 0 50 -5 78 -12z"/>
<path d="M2668 1642 c-114 -59 -208 -109 -208 -112 0 -3 91 -45 203 -93 111
-48 207 -90 213 -93 16 -7 26 151 18 285 -4 61 -10 113 -13 115 -3 2 -99 -44
-213 -102z m191 -97 c2 -159 8 -154 -121 -99 -191 82 -200 88 -155 110 12 6
72 36 132 67 61 31 117 56 127 57 14 0 16 -16 17 -135z"/>
<path d="M2356 1398 c-3 -46 -9 -92 -12 -104 -5 -20 -2 -20 117 12 67 19 130
34 139 34 43 0 20 18 -101 76 -72 35 -132 64 -134 64 -1 0 -5 -37 -9 -82z
m115 0 c38 -17 69 -34 69 -37 0 -8 -150 -44 -157 -38 -6 7 7 107 14 107 3 0
36 -14 74 -32z"/>
<path d="M2638 1255 l-236 -40 178 -157 179 -157 31 82 c30 77 95 307 88 311
-2 1 -110 -16 -240 -39z m179 -54 c-11 -87 -62 -225 -82 -223 -12 2 -234 194
-234 204 -1 4 11 11 27 15 53 14 277 49 285 45 5 -2 7 -21 4 -41z"/>
<path d="M2320 1172 c0 -10 -13 -46 -30 -78 -16 -32 -30 -61 -30 -64 0 -4 49
-11 110 -18 60 -7 124 -15 142 -19 31 -6 28 -2 -47 69 -44 41 -95 87 -112 102
-30 25 -33 26 -33 8z m123 -122 c4 0 7 -4 7 -8 0 -9 -51 -7 -107 3 -38 7 -39
12 -17 58 l16 34 47 -43 c25 -24 49 -44 54 -44z"/>
<path d="M2311 893 c35 -38 110 -116 166 -175 56 -60 104 -108 106 -108 13 0
151 233 152 254 0 7 -437 94 -479 96 -5 0 20 -30 55 -67z m176 -12 c26 -5 77
-15 113 -22 82 -15 81 -15 67 -47 -15 -36 -74 -129 -86 -136 -7 -5 -211 196
-211 209 0 8 65 6 117 -4z"/>
<path d="M2787 825 c-26 -52 -45 -95 -42 -95 7 0 97 181 93 186 -2 2 -25 -39
-51 -91z"/>
<path d="M2240 860 c12 -16 26 -30 32 -30 6 0 8 -3 5 -7 -9 -8 13 -34 23 -28
4 2 70 -63 146 -146 l138 -151 24 28 c12 16 32 43 43 59 l21 30 -22 -25 c-12
-14 -32 -38 -44 -53 l-22 -28 -129 141 c-71 78 -144 154 -162 171 -18 16 -34
32 -34 36 -1 12 -21 33 -31 33 -5 0 0 -13 12 -30z"/>
<path d="M1505 511 c-16 -25 -46 -54 -65 -63 -19 -10 -27 -18 -18 -18 22 0 72
43 99 86 32 52 19 48 -16 -5z"/>
<path d="M1758 463 c23 -2 61 -2 85 0 23 2 4 4 -43 4 -47 0 -66 -2 -42 -4z"/>
</g>
</svg>
