<?xml version="1.0" standalone="no"?>
<!DOCTYPE svg PUBLIC "-//W3C//DTD SVG 20010904//EN"
 "http://www.w3.org/TR/2001/REC-SVG-20010904/DTD/svg10.dtd">
<svg version="1.0" xmlns="http://www.w3.org/2000/svg"
 width="20.000000pt" height="20.000000pt" viewBox="0 0 200.000000 200.000000"
 preserveAspectRatio="xMidYMid meet">
<metadata>
Created by potrace 1.10, written by Peter Selinger 2001-2011
</metadata>
<g transform="translate(0.000000,200.000000) scale(0.100000,-0.100000)"
fill="#FFBC5E" stroke="none">
<path d="M760 1958 c-6 -24 -17 -68 -25 -98 -9 -30 -31 -113 -50 -184 -19 -71
-36 -130 -37 -130 -2 -1 -12 -7 -23 -13 -11 -7 -68 -39 -127 -70 -59 -32 -108
-62 -108 -67 0 -4 7 -5 16 -2 9 3 78 6 153 6 l138 0 11 38 c6 20 21 88 34 150
23 113 38 143 38 76 0 -20 10 -87 21 -150 l22 -114 61 -2 c34 0 73 0 89 1 15
1 27 0 27 -3 0 -6 -85 -121 -133 -181 l-24 -30 17 -131 c19 -140 27 -174 40
-174 4 0 7 -10 7 -22 -1 -13 2 -57 5 -98 4 -41 4 -67 2 -58 -7 22 -24 24 -24
3 0 -13 -2 -14 -14 -3 -8 7 -14 15 -13 18 3 12 -34 68 -63 95 l-32 30 -35 -40
c-19 -22 -39 -39 -43 -38 -4 1 -6 -6 -3 -17 3 -12 -1 -22 -11 -26 -9 -3 -13
-10 -10 -15 3 -6 -1 -21 -10 -34 -9 -13 -16 -29 -16 -35 0 -6 -7 -18 -15 -26
-21 -22 -19 -5 5 34 11 18 18 37 15 42 -3 4 6 30 19 56 14 27 22 52 20 56 -3
4 0 8 6 8 6 0 10 10 9 23 -2 12 5 36 14 54 9 18 17 38 17 46 0 8 7 32 16 53
16 37 17 38 25 17 5 -13 13 -23 19 -23 5 0 10 -6 10 -13 0 -8 9 -24 20 -37 11
-13 20 -26 20 -29 0 -3 10 -12 22 -20 21 -13 21 -13 -2 25 -12 22 -38 68 -57
104 -19 36 -38 69 -42 73 -5 5 -27 -47 -50 -115 -23 -68 -59 -172 -80 -233
-21 -60 -75 -216 -120 -345 -45 -129 -91 -259 -103 -288 -23 -58 -18 -85 5
-31 18 43 179 392 244 529 27 58 62 133 78 168 l28 63 44 -68 c133 -208 151
-229 140 -155 -3 20 -9 139 -13 263 l-7 226 40 79 c22 43 66 130 97 192 32 63
56 116 53 118 -8 8 -221 33 -231 27 -5 -3 -6 -1 -2 5 3 5 2 12 -3 14 -8 2 -91
424 -91 460 0 4 -4 8 -10 8 -5 0 -14 -19 -20 -42z m23 -118 c8 0 11 -17 10
-47 -1 -30 6 -62 18 -85 12 -23 15 -39 9 -43 -6 -3 -10 0 -10 7 0 9 -3 9 -10
-2 -8 -12 -10 -9 -10 12 0 41 -23 39 -46 -5 -20 -39 -21 -39 -26 -15 -3 19 -1
25 8 21 9 -3 12 8 11 43 -1 30 2 49 11 52 6 2 10 8 6 13 -3 5 -2 24 2 42 4 17
9 26 11 20 3 -7 10 -13 16 -13z m-83 -316 c-17 -81 -27 -99 -58 -101 -15 -1
-55 -4 -89 -7 -35 -3 -63 -1 -63 4 0 5 7 6 17 3 10 -4 14 -2 10 4 -4 6 7 16
23 23 17 7 30 16 30 20 0 4 11 11 24 14 13 3 39 22 57 40 18 19 36 33 41 30 4
-3 8 3 8 12 0 10 2 15 5 12 3 -3 1 -27 -5 -54z m143 -12 c-6 -15 -5 -15 10 -3
11 9 17 10 17 2 0 -6 7 -11 15 -11 8 0 15 -3 15 -7 0 -5 10 -8 23 -9 133 -4
163 -17 143 -59 -6 -14 -14 -25 -18 -25 -5 0 -8 -6 -8 -14 0 -8 -7 -22 -16
-31 -9 -9 -14 -19 -10 -22 3 -3 -3 -18 -13 -32 -44 -64 -109 -210 -105 -237 3
-26 3 -25 -7 5 -8 27 -7 37 7 53 16 17 16 18 1 12 -20 -7 -22 6 -4 25 6 7 8
12 2 11 -23 -5 -22 2 6 32 16 18 27 38 24 45 -4 12 8 18 28 14 5 -1 6 3 3 8
-10 15 5 43 20 37 7 -3 18 3 26 11 11 15 11 16 -5 10 -15 -6 -16 -4 -6 16 7
12 18 26 25 30 8 4 14 13 14 20 0 7 -4 6 -10 -3 -8 -13 -10 -13 -10 1 0 19
-39 29 -110 29 -51 0 -60 9 -66 60 -2 14 -6 35 -9 48 -3 13 -2 28 1 34 10 16
25 -28 17 -50z"/>
<path d="M290 1908 c0 -24 -5 -50 -10 -58 -8 -13 -12 -11 -27 10 -83 119 -152
105 -208 -44 -21 -58 -27 -93 -32 -205 -6 -149 8 -298 33 -359 42 -97 55 -121
109 -202 77 -114 104 -194 105 -305 0 -103 -43 -214 -84 -215 -23 0 -59 38
-85 89 -26 51 -61 200 -68 294 -3 42 -8 75 -11 72 -9 -8 -8 -525 1 -525 4 0 7
11 7 25 0 31 20 75 34 75 6 0 24 -18 39 -40 16 -22 35 -40 43 -40 8 0 14 -4
14 -10 0 -5 11 -10 25 -10 14 0 25 5 25 10 0 6 6 10 13 10 26 0 58 52 89 143
30 89 31 97 31 272 0 176 -1 182 -32 274 -17 51 -40 106 -51 121 -11 16 -20
31 -20 33 0 3 -24 41 -53 84 -77 113 -92 159 -92 273 1 138 34 204 95 185 41
-13 97 -173 107 -307 11 -164 23 -89 23 152 0 153 -4 240 -10 240 -5 0 -10
-19 -10 -42z m-171 -488 c23 -38 47 -70 53 -70 6 0 9 -3 5 -6 -3 -3 2 -14 11
-25 9 -11 17 -23 18 -27 1 -10 52 -124 66 -147 7 -12 14 -70 15 -140 l4 -120
-36 70 c-19 39 -58 106 -87 150 -70 109 -97 181 -114 309 -16 121 -11 176 11
113 7 -20 31 -68 54 -107z"/>
<path d="M1026 1748 c-4 -17 9 -18 161 -18 l164 0 -22 -40 -23 -40 -168 0
c-163 0 -168 -1 -168 -20 0 -20 4 -21 160 -18 88 2 160 0 160 -4 0 -3 -18 -44
-39 -91 -24 -53 -36 -89 -31 -98 6 -9 12 -5 21 17 7 16 44 96 81 178 37 82 68
150 68 150 0 1 -81 1 -179 1 -163 0 -180 -2 -185 -17z"/>
<path d="M352 1233 c3 -131 5 -148 21 -151 14 -3 17 4 17 46 0 27 4 71 9 98 5
27 11 72 12 99 3 50 3 50 -29 53 l-33 3 3 -148z"/>
<path d="M430 1016 c0 -311 -2 -365 -15 -376 -8 -7 -15 -28 -15 -47 l0 -34 73
3 c67 3 72 5 75 27 2 13 -1 33 -7 45 -11 23 -21 726 -10 726 6 0 15 -68 25
-190 7 -81 10 -90 29 -90 13 0 15 22 15 149 l0 149 -85 1 -85 0 0 -363z m69
280 c-5 -17 -9 -127 -9 -243 0 -135 -4 -213 -10 -213 -6 0 -10 77 -11 208 -2
222 -3 244 -13 260 -7 11 10 20 35 19 13 -1 15 -7 8 -31z m0 -678 c1 -12 -6
-18 -18 -18 -29 0 -33 14 -14 56 l17 39 7 -30 c3 -16 7 -38 8 -47z"/>
<path d="M1105 970 l0 -400 63 0 62 0 0 34 c0 18 -6 38 -12 44 -10 8 -13 93
-12 366 l0 356 -50 0 -51 0 0 -400z m72 -325 c7 -20 -2 -29 -21 -22 -9 4 -13
13 -10 22 8 19 23 19 31 0z"/>
<path d="M1220 1326 c0 -25 5 -48 10 -51 14 -9 13 -258 -1 -272 -7 -7 -9 -29
-4 -60 3 -26 9 -115 13 -198 4 -82 11 -156 15 -162 5 -7 25 -13 47 -13 34 0
39 4 49 31 6 18 11 52 11 77 0 34 -3 43 -14 39 -12 -5 -14 3 -9 41 7 60 -13
159 -38 185 -18 19 -18 21 0 46 32 45 47 151 33 232 -18 103 -39 143 -80 147
-32 3 -32 3 -32 -42z m78 -593 c-1 -5 5 -20 12 -35 15 -32 2 -75 -22 -75 -11
0 -13 10 -7 46 3 25 4 51 2 58 -3 7 0 13 6 13 6 0 10 -3 9 -7z"/>
<path d="M1387 1338 c3 -18 6 -39 9 -47 6 -20 6 -642 0 -649 -4 -3 -6 -20 -6
-39 l0 -33 54 0 53 0 2 353 c1 205 6 356 12 362 5 5 9 26 9 47 l0 38 -68 0
-69 0 4 -32z m78 -45 c-9 -52 -20 -60 -19 -15 1 49 2 52 15 52 8 0 9 -13 4
-37z"/>
<path d="M1607 1363 c-13 -12 -7 -64 8 -69 13 -5 15 -51 15 -324 0 -202 -4
-321 -10 -325 -5 -3 -10 -22 -10 -41 l0 -34 65 0 c45 0 65 4 66 13 2 24 -3 52
-12 61 -13 14 -12 643 1 651 6 3 10 22 10 41 l0 34 -63 0 c-35 0 -67 -3 -70
-7z m83 -52 c0 -28 -17 -35 -29 -12 -8 14 -8 21 2 24 22 10 27 7 27 -12z"/>
<path d="M1770 1220 c0 -91 4 -150 10 -150 12 0 18 28 24 115 3 39 8 96 12
128 6 56 6 57 -20 57 l-26 0 0 -150z"/>
<path d="M1832 1012 c-3 -295 -6 -359 -18 -368 -8 -6 -14 -25 -14 -43 l0 -31
75 0 75 0 0 33 c0 18 -4 37 -9 43 -5 5 -11 168 -13 367 l-3 357 -45 0 -45 0
-3 -358z m67 -384 c1 -5 -8 -8 -19 -8 -23 0 -24 4 -8 33 11 21 11 21 19 2 4
-11 8 -23 8 -27z"/>
<path d="M1943 1318 c10 -119 30 -248 38 -248 5 0 9 68 9 150 l0 150 -26 0
c-25 0 -26 -1 -21 -52z"/>
<path d="M1567 853 c-4 -3 -7 -24 -7 -46 0 -43 -13 -94 -36 -140 -8 -16 -14
-44 -14 -63 0 -33 1 -34 40 -34 l40 0 0 145 c0 133 -4 157 -23 138z"/>
<path d="M867 531 c10 -20 11 -391 0 -411 -6 -12 0 -15 28 -15 31 0 34 2 27
20 -4 11 -6 108 -4 216 l2 197 -30 4 c-26 4 -29 2 -23 -11z"/>
<path d="M1714 526 c-3 -13 0 -34 6 -47 l13 -23 14 27 c10 20 11 32 3 47 -14
27 -28 25 -36 -4z"/>
<path d="M683 529 c15 -9 17 -30 17 -205 0 -163 -2 -196 -15 -200 -32 -13 -4
-19 69 -16 l75 4 5 31 c13 84 14 107 7 107 -5 0 -11 -21 -15 -46 -7 -55 -20
-74 -51 -74 -22 0 -23 4 -27 92 -2 51 -3 95 -1 97 9 12 27 -23 34 -61 4 -29 6
-5 6 72 0 63 -1 104 -4 90 -9 -56 -14 -70 -32 -80 -18 -9 -19 -8 -10 23 5 17
9 59 7 92 -1 46 2 61 13 63 27 5 52 -24 59 -69 7 -41 8 -40 9 24 l1 67 -82 0
c-61 -1 -78 -3 -65 -11z"/>
<path d="M1227 475 c-5 -21 -15 -52 -23 -67 -8 -16 -12 -33 -8 -39 3 -6 6 -57
5 -113 -2 -105 10 -156 36 -156 14 0 38 49 28 58 -3 3 -5 0 -5 -7 0 -7 -4 -9
-10 -6 -6 4 -10 53 -10 116 0 90 3 109 15 109 8 0 15 7 15 15 0 8 -7 15 -15
15 -10 0 -15 15 -17 58 l-3 57 -8 -40z"/>
<path d="M977 392 c-49 -54 -35 -292 18 -292 18 0 42 36 50 75 4 25 4 26 -4 9
-22 -50 -46 -37 -55 29 l-7 47 37 0 37 0 -7 57 c-6 51 -27 93 -46 93 -4 0 -14
-8 -23 -18z m37 -24 c12 -48 7 -78 -14 -78 -15 0 -20 7 -20 28 0 35 10 72 20
72 4 0 10 -10 14 -22z"/>
<path d="M1106 395 c-57 -58 -39 -305 21 -293 9 2 25 18 35 37 21 37 16 56 -6
25 -18 -24 -24 -18 -42 47 -17 65 -18 118 -3 156 10 26 12 27 19 8 5 -11 9
-34 9 -52 1 -40 18 -52 27 -18 10 40 -12 105 -37 105 -4 0 -15 -7 -23 -15z"/>
<path d="M1355 380 c-19 -36 -29 -39 -21 -5 5 21 3 25 -16 25 -23 0 -23 -1
-20 -126 2 -69 2 -131 -1 -137 -2 -7 -6 -16 -8 -21 -2 -5 11 -10 29 -10 35 -1
50 8 32 19 -11 7 -14 183 -4 209 8 20 24 21 24 1 0 -25 17 -17 23 11 5 30 -2
64 -14 64 -5 0 -15 -13 -24 -30z"/>
<path d="M1433 378 c-26 -47 -26 -212 0 -251 26 -41 54 -35 77 16 31 67 24
196 -13 255 -15 23 -46 13 -64 -20z m51 -4 c10 -26 7 -228 -4 -244 -19 -29
-30 12 -30 122 0 105 5 138 20 138 4 0 11 -7 14 -16z"/>
<path d="M1619 394 c-11 -13 -10 -17 4 -25 14 -9 17 -27 17 -124 0 -70 -4
-115 -10 -115 -23 0 -8 -18 18 -22 l27 -4 -3 136 c-5 160 -17 197 -53 154z"/>
<path d="M1817 392 c-18 -20 -36 -90 -37 -143 0 -50 28 -139 46 -146 20 -7 51
24 57 57 2 14 2 20 0 13 -7 -18 -31 -23 -43 -8 -14 17 -26 161 -16 199 9 37
26 32 26 -6 0 -45 10 -79 21 -72 5 3 9 27 9 53 0 66 -29 91 -63 53z"/>
<path d="M1920 391 c-20 -39 -12 -115 21 -177 18 -37 27 -66 23 -77 -10 -26
-27 -16 -41 24 l-12 34 0 -45 c-1 -43 0 -45 29 -47 25 -2 33 3 40 23 15 37 12
115 -5 144 -30 54 -44 91 -38 106 7 20 27 12 31 -12 7 -35 22 -40 19 -5 -6 49
-47 69 -67 32z"/>
<path d="M0 379 c0 -20 3 -21 190 -17 105 2 190 0 190 -4 0 -4 -5 -19 -12 -33
l-11 -25 -179 0 c-171 0 -178 -1 -178 -20 0 -19 7 -20 170 -20 94 0 170 -4
170 -8 0 -4 -4 -12 -8 -18 -11 -12 -72 -167 -72 -182 0 -16 17 -15 23 1 3 6
35 85 71 175 36 90 66 165 66 168 0 2 -94 4 -210 4 -206 0 -210 0 -210 -21z"/>
<path d="M1550 385 c8 -10 11 -53 8 -148 l-3 -133 25 4 25 4 -2 131 c-1 73 -2
138 -3 145 0 7 -13 12 -31 12 -27 0 -30 -2 -19 -15z"/>
<path d="M1700 386 c8 -11 11 -55 8 -148 l-3 -133 33 0 c32 0 41 8 22 20 -6 4
-10 62 -10 141 l0 134 -31 0 c-26 0 -29 -2 -19 -14z"/>
</g>
</svg>
