<?xml version="1.0" standalone="no"?>
<!DOCTYPE svg PUBLIC "-//W3C//DTD SVG 20010904//EN"
 "http://www.w3.org/TR/2001/REC-SVG-20010904/DTD/svg10.dtd">
<svg version="1.0" xmlns="http://www.w3.org/2000/svg"
 width="131.000000pt" height="131.000000pt" viewBox="0 0 131.000000 131.000000"
 preserveAspectRatio="xMidYMid meet">
<metadata>
Created by potrace 1.10, written by Peter Selinger 2001-2011
</metadata>
<g transform="translate(0.000000,131.000000) scale(0.100000,-0.100000)"
fill="#FFBC5E" stroke="none">
<path d="M475 1203 c-15 -60 -32 -127 -38 -150 -10 -41 -15 -45 -94 -85 -45
-24 -83 -45 -83 -48 0 -3 44 -4 97 -3 l98 1 18 79 c10 43 22 90 27 105 4 16 4
30 0 33 -5 3 -6 13 -3 21 10 26 24 -6 17 -39 -5 -24 8 -139 22 -187 3 -12 17
-16 59 -15 30 1 55 -1 55 -3 0 -3 -12 -21 -27 -41 -71 -91 -71 -92 -62 -167 5
-38 11 -82 14 -99 6 -29 5 -29 -10 -10 -9 11 -28 43 -42 72 -15 29 -28 51 -29
50 -2 -1 -32 -88 -67 -192 -88 -257 -153 -439 -166 -463 -14 -26 -14 -32 -1
-32 6 0 10 5 10 10 0 6 25 62 55 126 30 64 55 118 55 120 0 1 25 55 55 119 30
65 55 121 55 126 0 24 19 2 64 -71 27 -44 52 -83 57 -85 4 -3 5 75 2 172 l-5
178 61 120 c34 66 61 123 61 126 0 4 -31 10 -68 14 -38 4 -74 10 -81 14 -6 4
-15 30 -20 57 -5 27 -17 95 -26 152 -10 56 -21 102 -25 102 -4 0 -19 -48 -35
-107z m-45 -230 c-1 -18 -17 -28 -45 -30 -19 -1 -22 0 -10 4 11 3 24 11 28 19
8 15 27 19 27 7z m209 -16 c25 6 43 -11 34 -34 -5 -12 -7 -12 -14 -2 -4 7 -22
15 -40 17 -17 2 -38 10 -45 17 -22 22 -16 27 14 11 16 -8 39 -12 51 -9z m-84
-381 c19 -13 25 -25 25 -53 l0 -37 -34 34 c-19 19 -42 35 -52 35 -14 0 -18 6
-15 25 1 14 8 34 13 44 10 19 11 18 24 -6 7 -14 25 -33 39 -42z"/>
<path d="M192 1253 c-3 -44 -17 -49 -42 -13 -18 25 -28 31 -54 28 -26 -3 -35
-11 -56 -53 -22 -45 -25 -65 -28 -188 -4 -165 9 -215 88 -338 35 -55 54 -96
61 -136 20 -108 -10 -214 -57 -199 -34 10 -58 66 -80 186 l-21 115 1 -177 c1
-98 3 -172 5 -165 2 6 8 23 13 37 l9 24 34 -37 c19 -20 41 -37 50 -37 27 0 63
49 86 118 19 58 21 80 16 186 -6 144 -20 190 -93 304 -65 103 -83 169 -65 244
11 51 26 78 42 78 39 0 87 -135 89 -250 0 -13 3 -20 8 -15 4 6 5 80 1 165 -3
85 -6 141 -7 123z m-61 -439 c22 -45 39 -95 39 -114 l0 -34 -20 22 c-32 34
-92 161 -98 206 l-5 41 22 -20 c13 -11 40 -56 62 -101z"/>
<path d="M670 1145 c0 -12 18 -15 105 -15 l105 0 -12 -25 c-11 -24 -14 -25
-120 -25 -80 0 -108 -3 -108 -12 0 -10 25 -12 100 -10 70 3 100 0 100 -7 0 -7
-11 -34 -25 -61 -28 -55 -30 -63 -15 -58 8 2 110 211 110 225 0 2 -54 3 -120
3 -100 0 -120 -2 -120 -15z"/>
<path d="M230 805 c0 -52 4 -95 9 -95 13 0 18 22 26 113 6 74 6 77 -14 77 -20
0 -21 -5 -21 -95z"/>
<path d="M280 665 c0 -161 -4 -241 -12 -254 -20 -33 -5 -47 46 -43 l47 4 -5
42 c-3 22 -7 140 -10 261 -5 204 -4 216 9 160 8 -33 14 -75 15 -92 0 -18 5
-33 10 -33 6 0 10 38 10 95 l0 95 -55 0 -55 0 0 -235z"/>
<path d="M725 638 l0 -263 42 3 c41 4 41 4 32 35 -5 18 -9 134 -9 259 l0 228
-32 0 -33 0 0 -262z"/>
<path d="M806 743 c2 -217 6 -336 11 -350 3 -7 18 -13 33 -13 20 0 29 6 34 23
9 34 7 67 -4 67 -6 0 -10 26 -10 58 0 33 -6 66 -14 78 -13 17 -12 27 6 79 18
54 19 66 8 120 -14 73 -26 95 -48 95 -15 0 -17 -15 -16 -157z"/>
<path d="M915 637 l0 -262 33 3 32 4 0 229 c0 141 4 230 10 234 6 3 10 17 10
31 0 22 -4 24 -42 24 l-43 0 0 -263z"/>
<path d="M1050 876 c0 -14 5 -28 10 -31 6 -4 10 -85 10 -210 0 -125 -4 -206
-10 -210 -5 -3 -10 -15 -10 -26 0 -16 7 -19 43 -19 l42 0 0 260 0 260 -42 0
c-39 0 -43 -2 -43 -24z"/>
<path d="M1160 798 c1 -122 14 -113 24 15 6 75 5 87 -8 87 -14 0 -16 -16 -16
-102z"/>
<path d="M1200 666 c0 -146 -4 -237 -10 -241 -5 -3 -10 -16 -10 -28 0 -20 5
-22 47 -21 37 1 49 5 51 19 2 9 -1 22 -7 28 -7 7 -11 89 -11 244 l0 233 -30 0
-30 0 0 -234z"/>
<path d="M1275 832 c13 -131 23 -145 24 -34 1 87 -1 102 -15 102 -14 0 -15 -9
-9 -68z"/>
<path d="M1027 563 c-3 -5 -8 -34 -11 -65 -4 -32 -12 -60 -17 -63 -5 -4 -9
-17 -9 -31 0 -19 5 -24 25 -24 25 0 25 0 25 95 0 89 -3 106 -13 88z"/>
<path d="M448 348 c17 -17 17 -249 0 -267 -11 -10 -2 -12 42 -9 l55 3 2 45 c2
46 -1 46 -11 -3 -4 -18 -13 -27 -26 -27 -18 0 -20 7 -20 60 0 33 2 60 5 60 2
0 9 -15 14 -32 8 -28 9 -21 9 42 -1 41 -3 64 -5 50 -9 -52 -23 -44 -23 14 0
49 2 57 18 54 11 -2 19 -16 23 -38 6 -33 6 -32 8 13 l1 47 -52 0 c-40 0 -49
-3 -40 -12z"/>
<path d="M565 350 c10 -16 13 -233 4 -258 -7 -19 -5 -22 14 -22 22 0 22 1 19
145 -3 138 -4 145 -23 145 -11 0 -17 -4 -14 -10z"/>
<path d="M1124 346 c-8 -21 3 -49 16 -41 5 3 10 15 10 25 0 25 -18 36 -26 16z"/>
<path d="M795 293 c-10 -50 -6 -205 6 -218 6 -5 14 -4 22 4 10 11 10 14 0 18
-9 3 -13 27 -13 73 0 45 4 70 13 73 9 4 9 8 -2 15 -8 6 -12 21 -9 41 6 44 -8
39 -17 -6z"/>
<path d="M630 234 c-16 -46 -8 -140 12 -161 15 -14 18 -13 32 15 20 38 21 52
2 26 -17 -23 -21 -19 -31 24 -6 30 -5 32 19 32 29 0 31 8 15 63 -13 47 -34 48
-49 1z m40 -26 c0 -10 -7 -18 -15 -18 -16 0 -19 17 -9 45 5 13 8 14 15 3 5 -7
9 -21 9 -30z"/>
<path d="M719 253 c-20 -23 -19 -154 1 -177 13 -17 15 -17 32 4 10 12 18 27
18 34 0 6 -4 5 -9 -3 -5 -7 -13 -11 -19 -7 -14 8 -25 99 -16 128 7 22 8 21 19
-12 9 -26 14 -31 19 -19 8 18 -9 69 -23 69 -4 0 -15 -7 -22 -17z"/>
<path d="M886 253 c-4 -9 0 -23 9 -32 13 -14 15 -12 15 17 0 34 -14 43 -24 15z"/>
<path d="M934 235 c-34 -81 4 -210 47 -158 21 25 24 138 5 168 -22 34 -34 31
-52 -10z m36 -71 c0 -54 -4 -83 -10 -79 -5 3 -10 42 -10 86 0 46 4 79 10 79 6
0 10 -35 10 -86z"/>
<path d="M1060 262 c0 -5 -10 -7 -22 -5 -23 4 -23 3 -23 -91 0 -85 2 -96 18
-96 15 0 17 11 17 85 0 54 4 85 11 85 7 0 9 -29 7 -85 -3 -76 -1 -85 15 -85
15 0 17 9 16 68 -2 82 -10 124 -26 130 -7 2 -13 -1 -13 -6z"/>
<path d="M1180 245 c-27 -70 0 -204 35 -175 7 6 15 20 18 31 4 16 3 18 -9 8
-11 -9 -16 -6 -24 16 -13 34 -13 125 0 125 6 0 10 -11 10 -24 0 -14 5 -28 11
-31 7 -5 9 6 7 31 -4 48 -33 59 -48 19z"/>
<path d="M1256 254 c-12 -30 -6 -74 15 -114 16 -30 19 -44 11 -52 -8 -8 -14
-5 -21 13 l-10 24 0 -26 c-1 -29 20 -44 38 -26 16 16 13 98 -4 121 -17 22 -20
56 -6 56 5 0 12 -8 14 -17 4 -14 5 -13 6 3 0 12 -6 25 -15 28 -21 8 -21 8 -28
-10z"/>
<path d="M0 250 c0 -6 48 -10 124 -10 119 0 124 -1 119 -20 -5 -19 -14 -20
-124 -20 -99 0 -119 -3 -119 -15 0 -12 19 -15 111 -15 85 0 110 -3 106 -12 -3
-7 -15 -37 -28 -66 -12 -29 -19 -55 -15 -59 9 -9 10 -7 58 115 l45 112 -139 0
c-85 0 -138 -4 -138 -10z"/>
<path d="M845 165 c0 -93 1 -95 23 -95 13 0 21 4 18 8 -2 4 -6 47 -7 95 -2 71
-6 87 -18 87 -13 0 -16 -16 -16 -95z"/>
<path d="M1115 165 c0 -88 1 -95 20 -95 19 0 20 6 17 95 -3 81 -6 95 -20 95
-15 0 -17 -13 -17 -95z"/>
</g>
</svg>
